<svg width="131" height="131" viewBox="0 0 131 131" fill="none" xmlns="http://www.w3.org/2000/svg">
<g filter="url(#filter0_dd_4021_44158)">
<path d="M68.9319 14.9085C70.4876 14.1096 72.3778 14.3773 73.6504 15.5769L74.6903 16.5566C75.4294 17.253 76.4714 17.5269 77.4574 17.2839L78.8443 16.9418C80.5423 16.5232 82.3204 17.2193 83.2821 18.6799L84.0669 19.8731C84.6254 20.7215 85.5768 21.2282 86.5925 21.2191L88.0205 21.2063C89.7692 21.1906 91.3383 22.2782 91.9373 23.9211L92.4267 25.2638C92.7747 26.2179 93.5829 26.9304 94.5732 27.1557L95.9654 27.4723C97.6707 27.8602 98.9472 29.2806 99.1511 31.0175L99.3171 32.4357C99.4355 33.4445 100.058 34.3249 100.97 34.7726L102.251 35.4019C103.821 36.1726 104.736 37.8486 104.534 39.5856L104.369 41.0042C104.251 42.0131 104.654 43.0129 105.437 43.6588L106.54 44.5675C107.889 45.6795 108.392 47.5213 107.795 49.165L107.307 50.5072C106.96 51.4618 107.122 52.5274 107.736 53.3365L108.598 54.4746C109.655 55.8678 109.72 57.7753 108.76 59.2368L107.976 60.4305C107.418 61.2795 107.329 62.354 107.739 63.283L108.317 64.5888C109.024 66.1882 108.647 68.0601 107.376 69.2608L106.338 70.2411C105.599 70.9385 105.265 71.9632 105.45 72.9619L105.711 74.3668C106.03 76.0861 105.231 77.8204 103.717 78.6954L102.481 79.4099C101.601 79.9182 101.04 80.8376 100.99 81.8519L100.92 83.2791C100.834 85.0257 99.6566 86.5287 97.9816 87.0311L96.6135 87.4419C95.6406 87.7337 94.8822 88.4988 94.5996 89.4745L94.2021 90.8464C93.7157 92.5262 92.2236 93.7178 90.4778 93.8203L89.0526 93.9035C88.0386 93.963 87.1238 94.5334 86.6239 95.4177L85.9211 96.6605C85.0604 98.1829 83.3332 98.9981 81.6108 98.6953L80.2048 98.4478C79.2045 98.2719 78.1828 98.6156 77.4924 99.3606L76.5214 100.409C75.3328 101.691 73.4655 102.086 71.8595 101.394L70.5479 100.829C69.615 100.427 68.5413 100.526 67.6977 101.092L66.5119 101.888C65.0596 102.862 63.1509 102.816 61.7476 101.772L60.601 100.919C59.786 100.313 58.7192 100.162 57.768 100.518L56.4306 101.019C54.7927 101.632 52.9464 101.146 51.8216 99.807L50.9024 98.7132C50.2492 97.9356 49.246 97.5422 48.2384 97.6691L46.8213 97.8481C45.0862 98.0668 43.4012 97.1687 42.6156 95.6063L41.9738 94.3298C41.5175 93.4226 40.6322 92.8087 39.6226 92.6998L38.2022 92.547C36.4634 92.3596 35.0315 91.0969 34.6274 89.3953L34.2975 88.0062C34.0628 87.018 33.3423 86.216 32.3848 85.8771L31.0378 85.4013C29.3892 84.818 28.2866 83.2589 28.2858 81.5101L28.2859 80.082C28.2854 79.0663 27.769 78.1206 26.9156 77.57L25.7155 76.7955C24.2458 75.8477 23.5316 74.0768 23.9341 72.375L24.2632 70.9845C24.4967 69.9963 24.2133 68.9571 23.5099 68.2247L22.5196 67.1948C21.3082 65.9337 21.0232 64.046 21.8071 62.4829L22.4477 61.2056C22.903 60.2977 22.8665 59.2204 22.3507 58.3454L21.6255 57.1153C20.7374 55.6087 20.8946 53.7058 22.0181 52.3656L22.9355 51.2715C23.588 50.4931 23.8016 49.4362 23.5015 48.4657L23.0794 47.1011C22.563 45.4305 23.1545 43.616 24.5564 42.5711L25.7021 41.7174C26.5165 41.1105 26.9668 40.1317 26.8987 39.1183L26.8027 37.6933C26.6853 35.9486 27.6802 34.3189 29.2854 33.6253L30.5966 33.0585C31.5291 32.6557 32.1943 31.8071 32.3617 30.8052L32.5967 29.3965C32.8849 27.6718 34.2283 26.3156 35.9503 26.0111L37.3565 25.7625C38.3567 25.5857 39.199 24.9128 39.5929 23.9765L40.1472 22.6603C40.8254 21.0484 42.4453 20.0382 44.1912 20.1391L45.6175 20.2217C46.6314 20.2802 47.6059 19.8203 48.205 19.0003L49.047 17.8462C50.0786 16.4343 51.8882 15.8254 53.5637 16.3259L54.9329 16.7349C55.9061 17.0256 56.9599 16.8029 57.7321 16.1431L58.8183 15.2149C60.1477 14.0791 62.0485 13.9039 63.5632 14.7774L64.8006 15.4912C65.6805 15.9986 66.7582 16.0251 67.6618 15.5611L68.9319 14.9085Z" fill="black"/>
<path d="M68.9319 14.9085C70.4876 14.1096 72.3778 14.3773 73.6504 15.5769L74.6903 16.5566C75.4294 17.253 76.4714 17.5269 77.4574 17.2839L78.8443 16.9418C80.5423 16.5232 82.3204 17.2193 83.2821 18.6799L84.0669 19.8731C84.6254 20.7215 85.5768 21.2282 86.5925 21.2191L88.0205 21.2063C89.7692 21.1906 91.3383 22.2782 91.9373 23.9211L92.4267 25.2638C92.7747 26.2179 93.5829 26.9304 94.5732 27.1557L95.9654 27.4723C97.6707 27.8602 98.9472 29.2806 99.1511 31.0175L99.3171 32.4357C99.4355 33.4445 100.058 34.3249 100.97 34.7726L102.251 35.4019C103.821 36.1726 104.736 37.8486 104.534 39.5856L104.369 41.0042C104.251 42.0131 104.654 43.0129 105.437 43.6588L106.54 44.5675C107.889 45.6795 108.392 47.5213 107.795 49.165L107.307 50.5072C106.96 51.4618 107.122 52.5274 107.736 53.3365L108.598 54.4746C109.655 55.8678 109.72 57.7753 108.76 59.2368L107.976 60.4305C107.418 61.2795 107.329 62.354 107.739 63.283L108.317 64.5888C109.024 66.1882 108.647 68.0601 107.376 69.2608L106.338 70.2411C105.599 70.9385 105.265 71.9632 105.45 72.9619L105.711 74.3668C106.03 76.0861 105.231 77.8204 103.717 78.6954L102.481 79.4099C101.601 79.9182 101.04 80.8376 100.99 81.8519L100.92 83.2791C100.834 85.0257 99.6566 86.5287 97.9816 87.0311L96.6135 87.4419C95.6406 87.7337 94.8822 88.4988 94.5996 89.4745L94.2021 90.8464C93.7157 92.5262 92.2236 93.7178 90.4778 93.8203L89.0526 93.9035C88.0386 93.963 87.1238 94.5334 86.6239 95.4177L85.9211 96.6605C85.0604 98.1829 83.3332 98.9981 81.6108 98.6953L80.2048 98.4478C79.2045 98.2719 78.1828 98.6156 77.4924 99.3606L76.5214 100.409C75.3328 101.691 73.4655 102.086 71.8595 101.394L70.5479 100.829C69.615 100.427 68.5413 100.526 67.6977 101.092L66.5119 101.888C65.0596 102.862 63.1509 102.816 61.7476 101.772L60.601 100.919C59.786 100.313 58.7192 100.162 57.768 100.518L56.4306 101.019C54.7927 101.632 52.9464 101.146 51.8216 99.807L50.9024 98.7132C50.2492 97.9356 49.246 97.5422 48.2384 97.6691L46.8213 97.8481C45.0862 98.0668 43.4012 97.1687 42.6156 95.6063L41.9738 94.3298C41.5175 93.4226 40.6322 92.8087 39.6226 92.6998L38.2022 92.547C36.4634 92.3596 35.0315 91.0969 34.6274 89.3953L34.2975 88.0062C34.0628 87.018 33.3423 86.216 32.3848 85.8771L31.0378 85.4013C29.3892 84.818 28.2866 83.2589 28.2858 81.5101L28.2859 80.082C28.2854 79.0663 27.769 78.1206 26.9156 77.57L25.7155 76.7955C24.2458 75.8477 23.5316 74.0768 23.9341 72.375L24.2632 70.9845C24.4967 69.9963 24.2133 68.9571 23.5099 68.2247L22.5196 67.1948C21.3082 65.9337 21.0232 64.046 21.8071 62.4829L22.4477 61.2056C22.903 60.2977 22.8665 59.2204 22.3507 58.3454L21.6255 57.1153C20.7374 55.6087 20.8946 53.7058 22.0181 52.3656L22.9355 51.2715C23.588 50.4931 23.8016 49.4362 23.5015 48.4657L23.0794 47.1011C22.563 45.4305 23.1545 43.616 24.5564 42.5711L25.7021 41.7174C26.5165 41.1105 26.9668 40.1317 26.8987 39.1183L26.8027 37.6933C26.6853 35.9486 27.6802 34.3189 29.2854 33.6253L30.5966 33.0585C31.5291 32.6557 32.1943 31.8071 32.3617 30.8052L32.5967 29.3965C32.8849 27.6718 34.2283 26.3156 35.9503 26.0111L37.3565 25.7625C38.3567 25.5857 39.199 24.9128 39.5929 23.9765L40.1472 22.6603C40.8254 21.0484 42.4453 20.0382 44.1912 20.1391L45.6175 20.2217C46.6314 20.2802 47.6059 19.8203 48.205 19.0003L49.047 17.8462C50.0786 16.4343 51.8882 15.8254 53.5637 16.3259L54.9329 16.7349C55.9061 17.0256 56.9599 16.8029 57.7321 16.1431L58.8183 15.2149C60.1477 14.0791 62.0485 13.9039 63.5632 14.7774L64.8006 15.4912C65.6805 15.9986 66.7582 16.0251 67.6618 15.5611L68.9319 14.9085Z" fill="url(#paint0_linear_4021_44158)"/>
<path d="M68.9319 14.9085C70.4876 14.1096 72.3778 14.3773 73.6504 15.5769L74.6903 16.5566C75.4294 17.253 76.4714 17.5269 77.4574 17.2839L78.8443 16.9418C80.5423 16.5232 82.3204 17.2193 83.2821 18.6799L84.0669 19.8731C84.6254 20.7215 85.5768 21.2282 86.5925 21.2191L88.0205 21.2063C89.7692 21.1906 91.3383 22.2782 91.9373 23.9211L92.4267 25.2638C92.7747 26.2179 93.5829 26.9304 94.5732 27.1557L95.9654 27.4723C97.6707 27.8602 98.9472 29.2806 99.1511 31.0175L99.3171 32.4357C99.4355 33.4445 100.058 34.3249 100.97 34.7726L102.251 35.4019C103.821 36.1726 104.736 37.8486 104.534 39.5856L104.369 41.0042C104.251 42.0131 104.654 43.0129 105.437 43.6588L106.54 44.5675C107.889 45.6795 108.392 47.5213 107.795 49.165L107.307 50.5072C106.96 51.4618 107.122 52.5274 107.736 53.3365L108.598 54.4746C109.655 55.8678 109.72 57.7753 108.76 59.2368L107.976 60.4305C107.418 61.2795 107.329 62.354 107.739 63.283L108.317 64.5888C109.024 66.1882 108.647 68.0601 107.376 69.2608L106.338 70.2411C105.599 70.9385 105.265 71.9632 105.45 72.9619L105.711 74.3668C106.03 76.0861 105.231 77.8204 103.717 78.6954L102.481 79.4099C101.601 79.9182 101.04 80.8376 100.99 81.8519L100.92 83.2791C100.834 85.0257 99.6566 86.5287 97.9816 87.0311L96.6135 87.4419C95.6406 87.7337 94.8822 88.4988 94.5996 89.4745L94.2021 90.8464C93.7157 92.5262 92.2236 93.7178 90.4778 93.8203L89.0526 93.9035C88.0386 93.963 87.1238 94.5334 86.6239 95.4177L85.9211 96.6605C85.0604 98.1829 83.3332 98.9981 81.6108 98.6953L80.2048 98.4478C79.2045 98.2719 78.1828 98.6156 77.4924 99.3606L76.5214 100.409C75.3328 101.691 73.4655 102.086 71.8595 101.394L70.5479 100.829C69.615 100.427 68.5413 100.526 67.6977 101.092L66.5119 101.888C65.0596 102.862 63.1509 102.816 61.7476 101.772L60.601 100.919C59.786 100.313 58.7192 100.162 57.768 100.518L56.4306 101.019C54.7927 101.632 52.9464 101.146 51.8216 99.807L50.9024 98.7132C50.2492 97.9356 49.246 97.5422 48.2384 97.6691L46.8213 97.8481C45.0862 98.0668 43.4012 97.1687 42.6156 95.6063L41.9738 94.3298C41.5175 93.4226 40.6322 92.8087 39.6226 92.6998L38.2022 92.547C36.4634 92.3596 35.0315 91.0969 34.6274 89.3953L34.2975 88.0062C34.0628 87.018 33.3423 86.216 32.3848 85.8771L31.0378 85.4013C29.3892 84.818 28.2866 83.2589 28.2858 81.5101L28.2859 80.082C28.2854 79.0663 27.769 78.1206 26.9156 77.57L25.7155 76.7955C24.2458 75.8477 23.5316 74.0768 23.9341 72.375L24.2632 70.9845C24.4967 69.9963 24.2133 68.9571 23.5099 68.2247L22.5196 67.1948C21.3082 65.9337 21.0232 64.046 21.8071 62.4829L22.4477 61.2056C22.903 60.2977 22.8665 59.2204 22.3507 58.3454L21.6255 57.1153C20.7374 55.6087 20.8946 53.7058 22.0181 52.3656L22.9355 51.2715C23.588 50.4931 23.8016 49.4362 23.5015 48.4657L23.0794 47.1011C22.563 45.4305 23.1545 43.616 24.5564 42.5711L25.7021 41.7174C26.5165 41.1105 26.9668 40.1317 26.8987 39.1183L26.8027 37.6933C26.6853 35.9486 27.6802 34.3189 29.2854 33.6253L30.5966 33.0585C31.5291 32.6557 32.1943 31.8071 32.3617 30.8052L32.5967 29.3965C32.8849 27.6718 34.2283 26.3156 35.9503 26.0111L37.3565 25.7625C38.3567 25.5857 39.199 24.9128 39.5929 23.9765L40.1472 22.6603C40.8254 21.0484 42.4453 20.0382 44.1912 20.1391L45.6175 20.2217C46.6314 20.2802 47.6059 19.8203 48.205 19.0003L49.047 17.8462C50.0786 16.4343 51.8882 15.8254 53.5637 16.3259L54.9329 16.7349C55.9061 17.0256 56.9599 16.8029 57.7321 16.1431L58.8183 15.2149C60.1477 14.0791 62.0485 13.9039 63.5632 14.7774L64.8006 15.4912C65.6805 15.9986 66.7582 16.0251 67.6618 15.5611L68.9319 14.9085Z" stroke="white" stroke-width="1.13802"/>
<path d="M86.1439 49.6721C86.1228 50.7858 85.8919 51.8691 85.4511 52.9219C85.0104 53.9748 84.3821 54.9407 83.5662 55.8197C82.7503 56.6987 81.7671 57.4726 80.6165 58.1415C79.5042 58.8124 78.2276 59.3208 76.7867 59.6666C78.4426 60.3318 79.824 61.0976 80.931 61.9641C82.0379 62.8307 82.8926 63.7413 83.4951 64.6962C84.1359 65.6531 84.5446 66.636 84.7213 67.645C84.898 68.654 84.882 69.6719 84.6733 70.6987C84.2641 72.5989 83.2467 74.3705 81.6211 76.0135C79.9955 77.6565 77.9859 78.933 75.5922 79.8429C73.2006 80.7145 70.5268 81.1097 67.5711 81.0285C64.6557 80.911 61.6653 80.0399 58.5999 78.4151C57.6389 79.1325 56.4964 79.6481 55.1726 79.9617C53.8488 80.2753 52.5181 80.3579 51.1805 80.2095C49.3446 80.0344 47.852 79.5509 46.7026 78.759C45.5915 77.9692 44.7762 77.0414 44.2566 75.9756C43.739 74.8715 43.514 73.687 43.5817 72.422C43.611 71.1549 43.8672 69.9577 44.3504 68.8302C44.8356 67.6645 45.5054 66.6431 46.3596 65.7662C47.2542 64.8529 48.2877 64.2162 49.4603 63.8561C49.8114 63.7595 50.1787 63.7215 50.562 63.742C50.9837 63.7646 51.3438 63.8607 51.6422 64.0304C51.9407 64.2002 52.1594 64.4233 52.2984 64.6999C52.4778 64.9401 52.5199 65.2307 52.4248 65.5716C52.0716 65.7065 51.7899 65.9413 51.5798 66.276C51.408 66.6128 51.331 66.9739 51.3488 67.3593C51.3667 67.7447 51.5005 68.117 51.7504 68.4764C52.0003 68.8358 52.4097 69.0883 52.9785 69.2341C54.1162 69.5256 55.1272 69.3105 56.0116 68.589C56.8959 67.8674 57.7008 66.8341 58.4263 65.4889C59.1538 64.1055 59.816 62.507 60.4127 60.6937C61.0498 58.8441 61.6688 56.9742 62.2697 55.0842C62.9109 53.1579 63.5501 51.27 64.1872 49.4203C64.8627 47.5728 65.6227 45.9411 66.4673 44.5255C65.4768 44.3572 64.2481 44.3299 62.7811 44.4437C61.3546 44.5211 59.9582 44.754 58.5919 45.1422C57.2257 45.5305 55.9843 46.0984 54.8679 46.846C53.7919 47.5573 53.089 48.4807 52.7592 49.6164C52.2959 51.0909 52.4462 52.233 53.2102 53.0427C54.0146 53.8162 55.2957 53.9424 57.0535 53.4213C57.3259 53.359 57.5378 53.3511 57.6891 53.3976C57.8807 53.4079 57.9663 53.6047 57.9458 53.988C57.9274 54.333 57.7645 54.8625 57.4572 55.5765C57.1903 56.2542 56.77 56.9237 56.1965 57.585C55.6612 58.2483 54.9768 58.8268 54.1431 59.3204C53.3114 59.7757 52.3408 59.9544 51.2312 59.8566C49.7403 59.7 48.4797 59.1905 47.4494 58.3281C46.4595 57.4294 45.729 56.3523 45.258 55.097C44.8273 53.8053 44.6711 52.413 44.7894 50.9201C44.9481 49.3908 45.4124 47.8972 46.1824 46.4391C46.9927 44.9447 48.1953 43.6635 49.7901 42.5955C51.4254 41.4912 53.2793 40.6101 55.352 39.9521C57.4267 39.2558 59.6435 38.7785 62.0023 38.5202C64.3612 38.262 66.7087 38.2145 69.045 38.3779C69.9806 36.698 70.8947 35.4206 71.7872 34.5457C72.7202 33.6346 73.5833 32.9503 74.3766 32.493C75.3253 32.0055 76.3182 31.7703 77.3552 31.7873C78.3943 31.766 79.288 31.9484 80.0362 32.3344C80.8227 32.7224 81.3882 33.2909 81.7326 34.0397C82.1174 34.7523 82.1287 35.6179 81.7667 36.6365C81.5949 36.9733 81.4898 37.1406 81.4515 37.1386C80.5315 37.0894 79.6365 37.2914 78.7665 37.7446C77.8986 38.1595 77.0587 38.7681 76.247 39.5704C77.6852 39.9934 79.0214 40.5261 80.2557 41.1688C81.4899 41.8115 82.5455 42.5599 83.4224 43.4141C84.3014 44.23 84.9816 45.1698 85.4629 46.2335C85.9462 47.2588 86.1733 48.4051 86.1439 49.6721ZM74.8159 67.4035C75 66.8367 75.0096 66.299 74.8445 65.7904C74.6816 65.2435 74.3037 64.762 73.7109 64.3459C73.1201 63.8914 72.2952 63.5013 71.2362 63.1755C70.2156 62.8518 68.9033 62.5894 67.2995 62.3883C66.7937 63.9374 66.3376 65.2778 65.9311 66.4093C65.5629 67.5429 65.0565 68.746 64.4118 70.0186C65.7994 70.6694 67.0873 71.0267 68.2756 71.0902C69.464 71.1538 70.5082 71.0366 71.4083 70.7388C72.3084 70.4409 73.0432 69.9997 73.6127 69.4151C74.1842 68.7921 74.5853 68.1216 74.8159 67.4035ZM69.2066 54.7633C69.9288 54.9172 70.7006 54.8624 71.522 54.5988C72.3817 54.3372 73.1528 53.9364 73.8352 53.3963C74.558 52.8198 75.1497 52.1787 75.6103 51.4729C76.073 50.7288 76.3047 49.9916 76.3053 49.2612C76.3442 48.5329 76.0735 47.8456 75.4929 47.1995C74.9507 46.5554 74.017 46.0441 72.6917 45.6657C72.2045 46.8698 71.787 47.847 71.4393 48.5973C71.132 49.3113 70.847 49.9688 70.5842 50.5698C70.3597 51.1729 70.1352 51.776 69.9108 52.379C69.6863 52.9821 69.4516 53.7769 69.2066 54.7633Z" fill="black"/>
</g>
<defs>
<filter id="filter0_dd_4021_44158" x="-5.59882" y="-5.63195" width="141.576" height="141.575" filterUnits="userSpaceOnUse" color-interpolation-filters="sRGB">
<feFlood flood-opacity="0" result="BackgroundImageFix"/>
<feColorMatrix in="SourceAlpha" type="matrix" values="0 0 0 0 0 0 0 0 0 0 0 0 0 0 0 0 0 0 127 0" result="hardAlpha"/>
<feOffset dy="6.82811"/>
<feGaussianBlur stdDeviation="10.2422"/>
<feColorMatrix type="matrix" values="0 0 0 0 0.246631 0 0 0 0 0.246631 0 0 0 0 0.246631 0 0 0 0.12 0"/>
<feBlend mode="normal" in2="BackgroundImageFix" result="effect1_dropShadow_4021_44158"/>
<feColorMatrix in="SourceAlpha" type="matrix" values="0 0 0 0 0 0 0 0 0 0 0 0 0 0 0 0 0 0 127 0" result="hardAlpha"/>
<feOffset dy="6.82811"/>
<feGaussianBlur stdDeviation="6.82811"/>
<feComposite in2="hardAlpha" operator="out"/>
<feColorMatrix type="matrix" values="0 0 0 0 0.247059 0 0 0 0 0.247059 0 0 0 0 0.247059 0 0 0 0.04 0"/>
<feBlend mode="normal" in2="effect1_dropShadow_4021_44158" result="effect2_dropShadow_4021_44158"/>
<feBlend mode="normal" in="SourceGraphic" in2="effect2_dropShadow_4021_44158" result="shape"/>
</filter>
<linearGradient id="paint0_linear_4021_44158" x1="41.0918" y1="9.96816" x2="126.429" y2="38.4415" gradientUnits="userSpaceOnUse">
<stop stop-color="#58F93B"/>
<stop offset="1" stop-color="#9FF625"/>
</linearGradient>
</defs>
</svg>
