<svg width="130" height="32" viewBox="0 0 130 32" fill="none" xmlns="http://www.w3.org/2000/svg">
<path d="M21.6826 6.788C21.8266 6.836 21.9146 6.884 21.9466 6.932C21.9786 6.964 21.9706 7.036 21.9226 7.148C21.8266 7.388 21.6826 7.796 21.4906 8.372C21.3146 8.932 21.1066 9.604 20.8666 10.388C20.6426 11.156 20.4106 12.004 20.1706 12.932C19.9306 13.844 19.7066 14.772 19.4986 15.716C19.3066 16.66 19.1386 17.588 18.9946 18.5C18.8666 19.412 18.7946 20.236 18.7786 20.972C18.7626 21.708 18.8186 22.34 18.9466 22.868C19.0906 23.38 19.3306 23.724 19.6666 23.9C19.6986 23.916 19.7066 23.972 19.6906 24.068C19.6746 24.148 19.6346 24.22 19.5706 24.284C19.3786 24.492 19.1466 24.684 18.8746 24.86C18.6186 25.052 18.3306 25.18 18.0106 25.244C17.6906 25.308 17.3546 25.292 17.0026 25.196C16.6506 25.116 16.2986 24.916 15.9466 24.596C15.6266 24.292 15.4186 23.82 15.3226 23.18C15.2426 22.54 15.2266 21.82 15.2746 21.02C15.3386 20.204 15.4586 19.348 15.6346 18.452C15.8266 17.54 16.0346 16.676 16.2586 15.86C16.4986 15.028 16.7306 14.276 16.9546 13.604C17.1946 12.932 17.4026 12.428 17.5786 12.092C17.1626 12.828 16.7226 13.708 16.2586 14.732C15.7946 15.74 15.3306 16.796 14.8666 17.9C14.4186 18.988 13.9866 20.06 13.5706 21.116C13.1546 22.156 12.7946 23.084 12.4906 23.9C12.4426 23.996 12.3146 24.068 12.1066 24.116C11.8986 24.164 11.6666 24.156 11.4106 24.092C11.1706 24.028 10.9386 23.9 10.7146 23.708C10.4906 23.5 10.3466 23.196 10.2826 22.796C10.1546 22.172 10.0666 21.412 10.0186 20.516C9.98663 19.62 9.97063 18.692 9.97063 17.732C9.97063 16.756 9.98663 15.796 10.0186 14.852C10.0506 13.892 10.0826 13.028 10.1146 12.26C9.89063 13.028 9.70663 13.852 9.56263 14.732C9.41863 15.596 9.27463 16.46 9.13063 17.324C9.00263 18.188 8.84263 19.028 8.65063 19.844C8.45863 20.644 8.19463 21.38 7.85863 22.052C7.52263 22.708 7.08263 23.268 6.53863 23.732C6.01063 24.18 5.33863 24.476 4.52263 24.62C3.83463 24.748 3.21063 24.724 2.65063 24.548C2.10663 24.372 1.64263 24.1 1.25863 23.732C0.874627 23.364 0.586627 22.932 0.394627 22.436C0.202627 21.924 0.114627 21.404 0.130627 20.876C0.162627 20.348 0.306627 19.836 0.562627 19.34C0.834627 18.844 1.23463 18.42 1.76263 18.068C1.90663 17.972 2.06663 17.908 2.24263 17.876C2.41863 17.844 2.57863 17.852 2.72263 17.9C2.86663 17.932 2.97863 18.012 3.05863 18.14C3.15463 18.252 3.17863 18.412 3.13063 18.62C3.01863 18.764 2.97063 18.932 2.98663 19.124C3.00263 19.3 3.05863 19.468 3.15463 19.628C3.25063 19.772 3.38663 19.892 3.56263 19.988C3.73863 20.084 3.93863 20.116 4.16263 20.084C4.53063 20.02 4.85063 19.78 5.12263 19.364C5.39463 18.948 5.64263 18.42 5.86663 17.78C6.10663 17.124 6.33863 16.396 6.56263 15.596C6.78663 14.796 7.03463 13.988 7.30663 13.172C7.59463 12.34 7.93063 11.532 8.31463 10.748C8.69863 9.964 9.16263 9.268 9.70663 8.66C9.27463 8.5 8.74663 8.372 8.12263 8.276C7.49863 8.18 6.87463 8.148 6.25063 8.18C5.62663 8.212 5.05063 8.332 4.52263 8.54C3.99463 8.732 3.60263 9.036 3.34663 9.452C3.18663 9.724 3.09063 10.02 3.05863 10.34C3.04263 10.66 3.10663 10.948 3.25063 11.204C3.39463 11.46 3.62663 11.66 3.94663 11.804C4.28263 11.948 4.73063 11.972 5.29063 11.876C5.40263 11.844 5.49063 11.836 5.55463 11.852C5.63463 11.852 5.66663 11.932 5.65063 12.092C5.65063 12.252 5.60263 12.476 5.50663 12.764C5.41063 13.052 5.25863 13.34 5.05063 13.628C4.84263 13.9 4.57063 14.132 4.23463 14.324C3.91463 14.5 3.52263 14.572 3.05863 14.54C2.30663 14.444 1.70663 14.196 1.25863 13.796C0.810627 13.396 0.498627 12.916 0.322627 12.356C0.162627 11.796 0.130627 11.204 0.226627 10.58C0.338627 9.956 0.570627 9.372 0.922627 8.828C1.32263 8.22 1.89063 7.756 2.62663 7.436C3.36263 7.1 4.15463 6.884 5.00263 6.788C5.86663 6.676 6.73863 6.66 7.61863 6.74C8.51463 6.804 9.32263 6.924 10.0426 7.1C10.7626 7.26 11.3466 7.452 11.7946 7.676C12.2426 7.9 12.4666 8.116 12.4666 8.324C12.4186 9.508 12.3626 10.668 12.2986 11.804C12.2506 12.924 12.2106 13.972 12.1786 14.948C12.1626 15.924 12.1546 16.812 12.1546 17.612C12.1706 18.412 12.2106 19.084 12.2746 19.628C12.4346 19.02 12.6506 18.348 12.9226 17.612C13.1946 16.86 13.4986 16.084 13.8346 15.284C14.1706 14.484 14.5226 13.684 14.8906 12.884C15.2746 12.084 15.6586 11.34 16.0426 10.652C16.4266 9.948 16.7946 9.324 17.1466 8.78C17.4986 8.22 17.8186 7.78 18.1066 7.46C18.2666 7.284 18.4826 7.132 18.7546 7.004C19.0426 6.876 19.3466 6.78 19.6666 6.716C20.0026 6.652 20.3466 6.628 20.6986 6.644C21.0506 6.644 21.3786 6.692 21.6826 6.788ZM32.8862 16.772C33.0622 16.436 33.2942 16.228 33.5822 16.148C33.8702 16.052 34.1422 16.052 34.3982 16.148C34.6542 16.244 34.8542 16.412 34.9982 16.652C35.1422 16.892 35.1502 17.172 35.0222 17.492C34.7342 18.228 34.3662 19.02 33.9182 19.868C33.4862 20.716 32.9822 21.508 32.4062 22.244C31.8302 22.98 31.1822 23.612 30.4622 24.14C29.7582 24.652 28.9822 24.948 28.1342 25.028C27.9262 25.7 27.6702 26.356 27.3662 26.996C27.0622 27.636 26.7022 28.22 26.2862 28.748C25.8702 29.276 25.3982 29.716 24.8702 30.068C24.3422 30.42 23.7502 30.636 23.0942 30.716C22.3742 30.796 21.7502 30.7 21.2222 30.428C20.7102 30.172 20.3102 29.812 20.0222 29.348C19.7182 28.884 19.5422 28.356 19.4942 27.764C19.4462 27.172 19.5342 26.596 19.7582 26.036C20.0142 25.364 20.3582 24.82 20.7902 24.404C21.2222 23.972 21.7022 23.628 22.2302 23.372C22.7582 23.116 23.3102 22.924 23.8862 22.796C24.4622 22.652 25.0382 22.54 25.6142 22.46C25.6942 22.236 25.7902 21.956 25.9022 21.62C26.0302 21.268 26.1582 20.908 26.2862 20.54C26.1102 20.812 25.9102 21.076 25.6862 21.332C25.4782 21.572 25.2382 21.796 24.9662 22.004C24.7102 22.196 24.4302 22.356 24.1262 22.484C23.8222 22.612 23.5022 22.684 23.1662 22.7C22.3982 22.732 21.7982 22.604 21.3662 22.316C20.9502 22.028 20.6542 21.644 20.4782 21.164C20.3022 20.668 20.2222 20.124 20.2382 19.532C20.2542 18.924 20.3182 18.324 20.4302 17.732C20.5422 17.14 20.6862 16.548 20.8622 15.956C21.0382 15.364 21.2142 14.836 21.3902 14.372C21.5662 13.892 21.7262 13.5 21.8702 13.196C22.0142 12.876 22.1262 12.692 22.2062 12.644C22.4142 12.484 22.6942 12.38 23.0462 12.332C23.3982 12.268 23.7342 12.252 24.0542 12.284C24.3902 12.3 24.6702 12.356 24.8942 12.452C25.1342 12.548 25.2382 12.66 25.2062 12.788C25.1582 12.964 25.0782 13.22 24.9662 13.556C24.8542 13.876 24.7342 14.244 24.6062 14.66C24.4782 15.06 24.3582 15.476 24.2462 15.908C24.1502 16.34 24.0862 16.74 24.0542 17.108C24.0382 17.46 24.0702 17.756 24.1502 17.996C24.2462 18.22 24.4302 18.34 24.7022 18.356C24.9422 18.372 25.1662 18.292 25.3742 18.116C25.5982 17.924 25.7982 17.684 25.9742 17.396C26.1662 17.092 26.3422 16.756 26.5022 16.388C26.6622 16.004 26.7982 15.628 26.9102 15.26C27.0382 14.892 27.1502 14.548 27.2462 14.228C27.3422 13.892 27.4222 13.628 27.4862 13.436C27.5182 13.324 27.5662 13.164 27.6302 12.956C27.6942 12.748 27.7902 12.604 27.9182 12.524C28.1102 12.364 28.3902 12.268 28.7582 12.236C29.1422 12.188 29.5102 12.188 29.8622 12.236C30.2302 12.268 30.5342 12.34 30.7742 12.452C31.0302 12.548 31.1422 12.66 31.1102 12.788C30.8382 14.084 30.5262 15.492 30.1742 17.012C29.8222 18.532 29.4142 20.116 28.9502 21.764C29.3342 21.636 29.7342 21.348 30.1502 20.9C30.5662 20.436 30.9502 19.94 31.3022 19.412C31.6702 18.884 31.9902 18.372 32.2622 17.876C32.5502 17.364 32.7582 16.996 32.8862 16.772ZM24.6782 24.98C24.0862 25.012 23.6302 25.124 23.3102 25.316C22.9902 25.508 22.7822 25.716 22.6862 25.94C22.5902 26.164 22.5822 26.356 22.6622 26.516C22.7582 26.692 22.9022 26.772 23.0942 26.756C23.3022 26.756 23.5422 26.62 23.8142 26.348C24.1022 26.092 24.3902 25.636 24.6782 24.98ZM40.8868 11.18C40.4708 11.436 40.1668 11.748 39.9748 12.116C39.7988 12.468 39.7188 12.812 39.7348 13.148C39.7508 13.484 39.8548 13.772 40.0468 14.012C40.2548 14.252 40.5348 14.38 40.8868 14.396C40.9988 14.396 41.0868 14.404 41.1508 14.42C41.2308 14.42 41.2548 14.508 41.2228 14.684C41.2068 14.86 41.1348 15.084 41.0068 15.356C40.8788 15.628 40.6948 15.892 40.4548 16.148C40.2308 16.404 39.9508 16.612 39.6148 16.772C39.2788 16.932 38.8868 16.988 38.4388 16.94C37.7988 16.812 37.2708 16.556 36.8548 16.172C36.4548 15.772 36.1668 15.3 35.9908 14.756C35.8308 14.212 35.7828 13.636 35.8468 13.028C35.9108 12.404 36.0868 11.812 36.3748 11.252C36.6788 10.676 37.0868 10.172 37.5988 9.74C38.1108 9.292 38.7268 8.972 39.4468 8.78C40.0548 8.62 40.6468 8.54 41.2228 8.54C41.7988 8.54 42.3588 8.596 42.9028 8.708C43.4628 8.804 44.0148 8.948 44.5588 9.14C45.1028 9.332 45.6548 9.54 46.2148 9.764C46.7428 9.204 47.3268 8.708 47.9668 8.276C48.6068 7.844 49.2868 7.5 50.0068 7.244C50.7268 6.972 51.4628 6.804 52.2148 6.74C52.9828 6.676 53.7428 6.732 54.4948 6.908C55.2788 7.132 55.9028 7.468 56.3668 7.916C56.8468 8.364 57.1908 8.86 57.3988 9.404C57.6068 9.948 57.6788 10.508 57.6148 11.084C57.5668 11.66 57.3988 12.196 57.1108 12.692C56.8228 13.188 56.4308 13.612 55.9348 13.964C55.4388 14.3 54.8468 14.5 54.1588 14.564C53.4068 14.644 52.5748 14.596 51.6628 14.42C50.7668 14.244 49.7348 13.82 48.5668 13.148C48.3268 13.42 48.1108 13.796 47.9188 14.276C47.7268 14.756 47.5828 15.268 47.4868 15.812C47.4068 16.356 47.3828 16.908 47.4148 17.468C47.4468 18.028 47.5668 18.532 47.7748 18.98C47.9828 19.412 48.2868 19.764 48.6868 20.036C49.1028 20.292 49.6388 20.396 50.2948 20.348C51.1428 20.284 51.8148 20.084 52.3108 19.748C52.8228 19.412 53.2548 19.02 53.6068 18.572C53.9588 18.108 54.2708 17.636 54.5428 17.156C54.8308 16.66 55.1828 16.22 55.5988 15.836C55.8228 15.628 56.0548 15.532 56.2948 15.548C56.5508 15.548 56.7748 15.612 56.9668 15.74C57.1588 15.868 57.2948 16.028 57.3748 16.22C57.4708 16.396 57.4708 16.556 57.3748 16.7C56.9268 17.356 56.5828 18.02 56.3428 18.692C56.1028 19.348 55.9268 20.02 55.8148 20.708C55.7028 21.38 55.6308 22.068 55.5988 22.772C55.5668 23.46 55.5188 24.148 55.4548 24.836C55.3908 25.524 55.2948 26.212 55.1668 26.9C55.0388 27.604 54.8308 28.292 54.5428 28.964C54.2388 29.668 53.8388 30.244 53.3428 30.692C52.8468 31.14 52.3108 31.468 51.7348 31.676C51.1748 31.884 50.5988 31.972 50.0068 31.94C49.4308 31.924 48.9028 31.796 48.4228 31.556C47.9428 31.316 47.5748 30.996 47.3188 30.596C47.0628 30.212 46.8948 29.804 46.8148 29.372C46.7348 28.94 46.7348 28.5 46.8148 28.052C46.8948 27.62 47.0228 27.228 47.1988 26.876C47.3908 26.54 47.6228 26.26 47.8948 26.036C48.1828 25.828 48.4868 25.732 48.8068 25.748C48.9988 25.748 49.1588 25.796 49.2868 25.892C49.4308 26.004 49.4868 26.172 49.4548 26.396C49.3748 26.524 49.3348 26.652 49.3348 26.78C49.3508 26.908 49.3908 27.028 49.4548 27.14C49.5348 27.268 49.6388 27.372 49.7668 27.452C49.8948 27.548 50.0388 27.612 50.1988 27.644C50.5508 27.724 50.8548 27.628 51.1108 27.356C51.3828 27.1 51.6228 26.732 51.8308 26.252C52.0388 25.772 52.2228 25.204 52.3828 24.548C52.5428 23.892 52.7108 23.204 52.8868 22.484C52.4228 22.9 51.9028 23.268 51.3268 23.588C50.7508 23.908 50.1668 24.108 49.5748 24.188C48.2788 24.364 47.1748 24.292 46.2628 23.972C45.3668 23.636 44.6388 23.14 44.0788 22.484C43.5348 21.828 43.1508 21.044 42.9268 20.132C42.7028 19.22 42.6308 18.268 42.7108 17.276C42.7908 16.284 43.0068 15.292 43.3588 14.3C43.7268 13.292 44.2228 12.364 44.8468 11.516C44.2388 11.132 43.5908 10.884 42.9028 10.772C42.2148 10.644 41.5428 10.78 40.8868 11.18ZM49.8628 11.444C50.1188 11.572 50.4548 11.708 50.8708 11.852C51.2868 11.98 51.7108 12.068 52.1428 12.116C52.5748 12.148 52.9748 12.116 53.3428 12.02C53.7268 11.924 54.0148 11.708 54.2068 11.372C54.3668 11.1 54.4388 10.804 54.4228 10.484C54.4228 10.164 54.2868 9.908 54.0148 9.716C53.6788 9.476 53.3108 9.388 52.9108 9.452C52.5108 9.516 52.1188 9.66 51.7348 9.884C51.3508 10.092 50.9908 10.348 50.6548 10.652C50.3348 10.956 50.0708 11.22 49.8628 11.444ZM70.3121 16.772C70.4881 16.436 70.7201 16.228 71.0081 16.148C71.2961 16.052 71.5681 16.052 71.8241 16.148C72.0801 16.244 72.2801 16.412 72.4241 16.652C72.5681 16.892 72.5761 17.172 72.4481 17.492C72.1601 18.228 71.7921 19.02 71.3441 19.868C70.9121 20.716 70.4081 21.508 69.8321 22.244C69.2561 22.98 68.6081 23.612 67.8881 24.14C67.1841 24.652 66.4081 24.948 65.5601 25.028C65.3521 25.7 65.0961 26.356 64.7921 26.996C64.4881 27.636 64.1281 28.22 63.7121 28.748C63.2961 29.276 62.8241 29.716 62.2961 30.068C61.7681 30.42 61.1761 30.636 60.5201 30.716C59.8001 30.796 59.1761 30.7 58.6481 30.428C58.1361 30.172 57.7361 29.812 57.4481 29.348C57.1441 28.884 56.9681 28.356 56.9201 27.764C56.8721 27.172 56.9601 26.596 57.1841 26.036C57.4401 25.364 57.7841 24.82 58.2161 24.404C58.6481 23.972 59.1281 23.628 59.6561 23.372C60.1841 23.116 60.7361 22.924 61.3121 22.796C61.8881 22.652 62.4641 22.54 63.0401 22.46C63.1201 22.236 63.2161 21.956 63.3281 21.62C63.4561 21.268 63.5841 20.908 63.7121 20.54C63.5361 20.812 63.3361 21.076 63.1121 21.332C62.9041 21.572 62.6641 21.796 62.3921 22.004C62.1361 22.196 61.8561 22.356 61.5521 22.484C61.2481 22.612 60.9281 22.684 60.5921 22.7C59.8241 22.732 59.2241 22.604 58.7921 22.316C58.3761 22.028 58.0801 21.644 57.9041 21.164C57.7281 20.668 57.6481 20.124 57.6641 19.532C57.6801 18.924 57.7441 18.324 57.8561 17.732C57.9681 17.14 58.1121 16.548 58.2881 15.956C58.4641 15.364 58.6401 14.836 58.8161 14.372C58.9921 13.892 59.1521 13.5 59.2961 13.196C59.4401 12.876 59.5521 12.692 59.6321 12.644C59.8401 12.484 60.1201 12.38 60.4721 12.332C60.8241 12.268 61.1601 12.252 61.4801 12.284C61.8161 12.3 62.0961 12.356 62.3201 12.452C62.5601 12.548 62.6641 12.66 62.6321 12.788C62.5841 12.964 62.5041 13.22 62.3921 13.556C62.2801 13.876 62.1601 14.244 62.0321 14.66C61.9041 15.06 61.7841 15.476 61.6721 15.908C61.5761 16.34 61.5121 16.74 61.4801 17.108C61.4641 17.46 61.4961 17.756 61.5761 17.996C61.6721 18.22 61.8561 18.34 62.1281 18.356C62.3681 18.372 62.5921 18.292 62.8001 18.116C63.0241 17.924 63.2241 17.684 63.4001 17.396C63.5921 17.092 63.7681 16.756 63.9281 16.388C64.0881 16.004 64.2241 15.628 64.3361 15.26C64.4641 14.892 64.5761 14.548 64.6721 14.228C64.7681 13.892 64.8481 13.628 64.9121 13.436C64.9441 13.324 64.9921 13.164 65.0561 12.956C65.1201 12.748 65.2161 12.604 65.3441 12.524C65.5361 12.364 65.8161 12.268 66.1841 12.236C66.5681 12.188 66.9361 12.188 67.2881 12.236C67.6561 12.268 67.9601 12.34 68.2001 12.452C68.4561 12.548 68.5681 12.66 68.5361 12.788C68.2641 14.084 67.9521 15.492 67.6001 17.012C67.2481 18.532 66.8401 20.116 66.3761 21.764C66.7601 21.636 67.1601 21.348 67.5761 20.9C67.9921 20.436 68.3761 19.94 68.7281 19.412C69.0961 18.884 69.4161 18.372 69.6881 17.876C69.9761 17.364 70.1841 16.996 70.3121 16.772ZM62.1041 24.98C61.5121 25.012 61.0561 25.124 60.7361 25.316C60.4161 25.508 60.2081 25.716 60.1121 25.94C60.0161 26.164 60.0081 26.356 60.0881 26.516C60.1841 26.692 60.3281 26.772 60.5201 26.756C60.7281 26.756 60.9681 26.62 61.2401 26.348C61.5281 26.092 61.8161 25.636 62.1041 24.98ZM87.5134 16.748C87.6734 16.396 87.8974 16.18 88.1854 16.1C88.4734 16.02 88.7454 16.028 89.0014 16.124C89.2574 16.22 89.4574 16.396 89.6014 16.652C89.7614 16.908 89.7854 17.196 89.6734 17.516C89.4014 18.316 89.0254 19.116 88.5454 19.916C88.0814 20.716 87.4894 21.364 86.7694 21.86C86.3534 22.164 85.9054 22.388 85.4254 22.532C84.9454 22.676 84.4814 22.74 84.0334 22.724C83.5854 22.708 83.1614 22.612 82.7614 22.436C82.3774 22.244 82.0654 21.98 81.8254 21.644C81.5854 21.308 81.4334 20.884 81.3694 20.372C81.3214 19.86 81.4014 19.268 81.6094 18.596C81.7534 18.148 81.9054 17.708 82.0654 17.276C82.2414 16.844 82.3774 16.468 82.4734 16.148C82.5694 15.812 82.6014 15.54 82.5694 15.332C82.5374 15.124 82.3934 15.004 82.1374 14.972C81.7854 14.94 81.4494 15.068 81.1294 15.356C80.8094 15.644 80.5054 16.02 80.2174 16.484C79.9454 16.948 79.6894 17.476 79.4494 18.068C79.2094 18.644 78.9934 19.22 78.8014 19.796C78.6254 20.356 78.4654 20.884 78.3214 21.38C78.1934 21.86 78.0974 22.244 78.0334 22.532C77.3134 22.66 76.6894 22.668 76.1614 22.556C75.6334 22.428 75.2814 22.172 75.1054 21.788C74.9294 21.42 74.8974 20.964 75.0094 20.42C75.1214 19.876 75.2814 19.308 75.4894 18.716C75.6974 18.124 75.8894 17.54 76.0654 16.964C76.2574 16.372 76.3374 15.86 76.3054 15.428C76.2734 15.14 76.1294 14.988 75.8734 14.972C75.5214 14.94 75.1774 15.068 74.8414 15.356C74.5214 15.628 74.2094 15.996 73.9054 16.46C73.6174 16.908 73.3454 17.42 73.0894 17.996C72.8494 18.572 72.6254 19.14 72.4174 19.7C72.2254 20.26 72.0574 20.788 71.9134 21.284C71.7694 21.764 71.6654 22.148 71.6014 22.436C71.1694 22.564 70.7454 22.62 70.3294 22.604C69.9134 22.572 69.5534 22.468 69.2494 22.292C68.9614 22.116 68.7454 21.868 68.6014 21.548C68.4574 21.228 68.4414 20.828 68.5534 20.348C68.7774 19.324 68.9854 18.444 69.1774 17.708C69.3694 16.972 69.5454 16.332 69.7054 15.788C69.8654 15.244 70.0174 14.772 70.1614 14.372C70.3054 13.972 70.4414 13.588 70.5694 13.22C70.6654 12.964 70.8494 12.764 71.1214 12.62C71.3934 12.476 71.6974 12.38 72.0334 12.332C72.3694 12.284 72.6894 12.276 72.9934 12.308C73.3134 12.324 73.5534 12.372 73.7134 12.452C73.8094 12.5 73.8494 12.62 73.8334 12.812C73.8174 12.988 73.7774 13.196 73.7134 13.436C73.6494 13.66 73.5774 13.876 73.4974 14.084C73.4174 14.292 73.3694 14.444 73.3534 14.54C73.8974 13.868 74.4654 13.332 75.0574 12.932C75.6494 12.516 76.3294 12.3 77.0974 12.284C77.6574 12.268 78.1134 12.396 78.4654 12.668C78.8334 12.924 79.1294 13.292 79.3534 13.772C79.4174 13.884 79.4574 13.996 79.4734 14.108C79.5054 14.22 79.5294 14.34 79.5454 14.468C79.5774 14.484 79.5934 14.5 79.5934 14.516C79.6094 14.516 79.6334 14.524 79.6654 14.54C80.2254 13.868 80.8014 13.332 81.3934 12.932C81.9854 12.516 82.6654 12.3 83.4334 12.284C83.9934 12.268 84.4494 12.396 84.8014 12.668C85.1694 12.924 85.4654 13.292 85.6894 13.772C85.9134 14.268 85.9774 14.788 85.8814 15.332C85.8014 15.86 85.6894 16.356 85.5454 16.82C85.4174 17.268 85.3294 17.644 85.2814 17.948C85.2494 18.252 85.3854 18.412 85.6894 18.428C85.9294 18.444 86.1374 18.404 86.3134 18.308C86.5054 18.196 86.6734 18.06 86.8174 17.9C86.9774 17.724 87.1134 17.532 87.2254 17.324C87.3374 17.116 87.4334 16.924 87.5134 16.748ZM107.798 11.036C107.814 11.5 107.742 11.956 107.582 12.404C107.422 12.852 107.182 13.268 106.862 13.652C106.542 14.036 106.15 14.38 105.686 14.684C105.238 14.988 104.718 15.228 104.126 15.404C104.83 15.644 105.422 15.932 105.902 16.268C106.382 16.604 106.758 16.964 107.03 17.348C107.318 17.732 107.51 18.132 107.606 18.548C107.702 18.964 107.718 19.388 107.654 19.82C107.526 20.62 107.142 21.38 106.502 22.1C105.862 22.82 105.054 23.396 104.078 23.828C103.102 24.244 101.998 24.468 100.766 24.5C99.5501 24.516 98.2861 24.22 96.9741 23.612C96.5901 23.932 96.1261 24.172 95.5821 24.332C95.0381 24.492 94.4861 24.556 93.9261 24.524C93.1581 24.492 92.5261 24.324 92.0301 24.02C91.5501 23.716 91.1901 23.348 90.9501 22.916C90.7101 22.468 90.5901 21.98 90.5901 21.452C90.5741 20.924 90.6541 20.42 90.8301 19.94C91.0061 19.444 91.2621 19.004 91.5981 18.62C91.9501 18.22 92.3661 17.932 92.8461 17.756C92.9901 17.708 93.1421 17.684 93.3021 17.684C93.4781 17.684 93.6301 17.716 93.7581 17.78C93.8861 17.844 93.9821 17.932 94.0461 18.044C94.1261 18.14 94.1501 18.26 94.1181 18.404C93.9741 18.468 93.8621 18.572 93.7821 18.716C93.7181 18.86 93.6941 19.012 93.7101 19.172C93.7261 19.332 93.7901 19.484 93.9021 19.628C94.0141 19.772 94.1901 19.868 94.4301 19.916C94.9101 20.012 95.3261 19.9 95.6781 19.58C96.0301 19.26 96.3421 18.812 96.6141 18.236C96.8861 17.644 97.1261 16.964 97.3341 16.196C97.5581 15.412 97.7741 14.62 97.9821 13.82C98.2061 13.004 98.4301 12.204 98.6541 11.42C98.8941 10.636 99.1741 9.94 99.4941 9.332C99.0781 9.284 98.5661 9.3 97.9581 9.38C97.3661 9.444 96.7901 9.572 96.2301 9.764C95.6701 9.956 95.1661 10.22 94.7181 10.556C94.2861 10.876 94.0141 11.276 93.9021 11.756C93.7421 12.38 93.8301 12.852 94.1661 13.172C94.5181 13.476 95.0541 13.5 95.7741 13.244C95.8861 13.212 95.9741 13.204 96.0381 13.22C96.1181 13.22 96.1581 13.3 96.1581 13.46C96.1581 13.604 96.1021 13.828 95.9901 14.132C95.8941 14.42 95.7341 14.708 95.5101 14.996C95.3021 15.284 95.0301 15.54 94.6941 15.764C94.3581 15.972 93.9581 16.068 93.4941 16.052C92.8701 16.02 92.3341 15.836 91.8861 15.5C91.4541 15.148 91.1261 14.716 90.9021 14.204C90.6941 13.676 90.5981 13.1 90.6141 12.476C90.6461 11.836 90.8061 11.204 91.0941 10.58C91.3981 9.94 91.8701 9.38 92.5101 8.9C93.1661 8.404 93.9181 7.996 94.7661 7.676C95.6141 7.34 96.5261 7.092 97.5021 6.932C98.4781 6.772 99.4541 6.7 100.43 6.716C100.782 5.996 101.134 5.444 101.486 5.06C101.854 4.66 102.198 4.356 102.518 4.148C102.902 3.924 103.31 3.804 103.742 3.788C104.174 3.756 104.55 3.812 104.87 3.956C105.206 4.1 105.454 4.324 105.614 4.628C105.79 4.916 105.814 5.276 105.686 5.708C105.622 5.852 105.582 5.924 105.566 5.924C105.182 5.924 104.814 6.028 104.462 6.236C104.11 6.428 103.774 6.7 103.454 7.052C104.062 7.196 104.63 7.388 105.158 7.628C105.686 7.868 106.142 8.156 106.526 8.492C106.91 8.812 107.214 9.188 107.438 9.62C107.662 10.036 107.782 10.508 107.798 11.036ZM103.478 18.668C103.542 18.428 103.534 18.204 103.454 17.996C103.374 17.772 103.206 17.58 102.95 17.42C102.694 17.244 102.342 17.1 101.894 16.988C101.462 16.876 100.91 16.796 100.238 16.748C100.062 17.404 99.9021 17.972 99.7581 18.452C99.6301 18.932 99.4461 19.444 99.2061 19.988C99.7981 20.228 100.342 20.348 100.838 20.348C101.334 20.348 101.766 20.276 102.134 20.132C102.502 19.988 102.798 19.788 103.022 19.532C103.246 19.26 103.398 18.972 103.478 18.668ZM100.862 13.532C101.166 13.58 101.486 13.54 101.822 13.412C102.174 13.284 102.486 13.1 102.758 12.86C103.046 12.604 103.278 12.324 103.454 12.02C103.63 11.7 103.71 11.388 103.694 11.084C103.694 10.78 103.566 10.5 103.31 10.244C103.07 9.988 102.67 9.796 102.11 9.668C101.934 10.18 101.782 10.596 101.654 10.916C101.542 11.22 101.438 11.5 101.342 11.756C101.262 12.012 101.182 12.268 101.102 12.524C101.022 12.78 100.942 13.116 100.862 13.532ZM118.36 16.796C118.52 16.46 118.744 16.252 119.032 16.172C119.32 16.076 119.592 16.084 119.848 16.196C120.104 16.292 120.304 16.468 120.448 16.724C120.608 16.964 120.632 17.244 120.52 17.564C120.248 18.38 119.872 19.188 119.392 19.988C118.912 20.772 118.312 21.42 117.592 21.932C117.192 22.22 116.76 22.436 116.296 22.58C115.832 22.724 115.376 22.796 114.928 22.796C114.48 22.796 114.056 22.724 113.656 22.58C113.256 22.42 112.928 22.196 112.672 21.908C112.272 21.444 112.056 20.908 112.024 20.3C112.008 19.676 112.096 19.052 112.288 18.428C112.496 17.804 112.768 17.204 113.104 16.628C113.456 16.052 113.8 15.572 114.136 15.188C113.88 15.252 113.632 15.276 113.392 15.26C113.168 15.228 112.848 15.172 112.432 15.092C112.256 15.62 112.032 16.156 111.76 16.7C111.488 17.228 111.216 17.716 110.944 18.164C110.784 18.436 110.552 18.596 110.248 18.644C109.96 18.676 109.68 18.628 109.408 18.5C109.152 18.372 108.952 18.18 108.808 17.924C108.68 17.668 108.704 17.372 108.88 17.036C108.944 16.924 109.04 16.732 109.168 16.46C109.296 16.172 109.432 15.86 109.576 15.524C109.736 15.172 109.896 14.812 110.056 14.444C110.216 14.06 110.352 13.708 110.464 13.388C110.08 12.908 109.88 12.452 109.864 12.02C109.848 11.572 109.936 11.188 110.128 10.868C110.336 10.548 110.608 10.316 110.944 10.172C111.296 10.012 111.64 9.972 111.976 10.052C112.328 10.132 112.64 10.356 112.912 10.724C113.2 11.092 113.376 11.636 113.44 12.356C113.664 12.356 113.912 12.356 114.184 12.356C114.456 12.356 114.728 12.356 115 12.356C115.272 12.356 115.528 12.364 115.768 12.38C116.024 12.396 116.24 12.42 116.416 12.452C116.784 12.532 117.08 12.716 117.304 13.004C117.528 13.276 117.608 13.612 117.544 14.012C117.528 14.14 117.464 14.332 117.352 14.588C117.24 14.844 117.12 15.132 116.992 15.452C116.864 15.772 116.736 16.108 116.608 16.46C116.48 16.796 116.384 17.108 116.32 17.396C116.256 17.684 116.232 17.932 116.248 18.14C116.28 18.348 116.392 18.468 116.584 18.5C116.792 18.548 116.984 18.516 117.16 18.404C117.352 18.276 117.52 18.124 117.664 17.948C117.824 17.756 117.96 17.556 118.072 17.348C118.184 17.14 118.28 16.956 118.36 16.796ZM127.409 16.748C127.585 16.412 127.817 16.212 128.105 16.148C128.393 16.084 128.657 16.116 128.897 16.244C129.137 16.356 129.329 16.548 129.473 16.82C129.617 17.076 129.633 17.364 129.521 17.684C129.345 18.212 129.065 18.732 128.681 19.244C128.297 19.74 127.857 20.164 127.361 20.516C126.865 20.868 126.337 21.124 125.777 21.284C125.217 21.428 124.673 21.412 124.145 21.236C123.681 21.764 123.121 22.18 122.465 22.484C121.809 22.772 121.065 22.876 120.233 22.796C119.369 22.7 118.705 22.364 118.241 21.788C117.793 21.212 117.513 20.524 117.401 19.724C117.305 18.924 117.369 18.076 117.593 17.18C117.817 16.284 118.169 15.468 118.649 14.732C119.129 13.996 119.729 13.412 120.449 12.98C121.169 12.532 121.977 12.356 122.873 12.452C123.497 12.532 124.017 12.748 124.433 13.1C124.849 13.452 125.169 13.892 125.393 14.42C125.633 14.948 125.769 15.532 125.801 16.172C125.849 16.812 125.801 17.46 125.657 18.116C125.833 18.164 126.001 18.156 126.161 18.092C126.337 18.028 126.497 17.924 126.641 17.78C126.801 17.636 126.945 17.476 127.073 17.3C127.201 17.108 127.313 16.924 127.409 16.748ZM121.601 18.596C121.649 18.612 121.713 18.62 121.793 18.62C121.889 18.204 122.073 17.828 122.345 17.492C122.617 17.14 122.913 16.94 123.233 16.892C123.345 16.476 123.345 16.1 123.233 15.764C123.137 15.428 122.881 15.244 122.465 15.212C122.177 15.196 121.921 15.268 121.697 15.428C121.473 15.588 121.289 15.796 121.145 16.052C121.001 16.292 120.889 16.556 120.809 16.844C120.745 17.132 120.729 17.404 120.761 17.66C120.793 17.916 120.873 18.132 121.001 18.308C121.145 18.484 121.345 18.58 121.601 18.596Z" fill="black"/>
</svg>
